Coordinates
version=1
nRows=13
nColumns=40
inDegrees=yes

Units are S.I. units (second, meters, Newtons, ...)
Angles are in degrees.

endheader
time	pelvis_tilt	pelvis_list	pelvis_rotation	pelvis_tx	pelvis_ty	pelvis_tz	hip_flexion_r	hip_adduction_r	hip_rotation_r	knee_angle_r	knee_angle_r_beta	ankle_angle_r	subtalar_angle_r	mtp_angle_r	hip_flexion_l	hip_adduction_l	hip_rotation_l	knee_angle_l	knee_angle_l_beta	ankle_angle_l	subtalar_angle_l	mtp_angle_l	lumbar_extension	lumbar_bending	lumbar_rotation	arm_flex_r	arm_add_r	arm_rot_r	elbow_flex_r	pro_sup_r	wrist_flex_r	wrist_dev_r	arm_flex_l	arm_add_l	arm_rot_l	elbow_flex_l	pro_sup_l	wrist_flex_l	wrist_dev_l
     37.75114286	     -5.59265865	     -7.07323110	      5.89893771	      1.07724684	      0.91317059	      0.48140218	     -4.91339604	      6.72720296	    -19.14010199	      5.30200358	      5.30200358	     16.82747721	     10.28396808	     -2.90094803	     35.83261442	     -8.65577420	     -3.60636101	     19.02252663	     19.02252663	      3.51683166	    -10.79526830	     11.33670969	     -8.19960878	      8.42794483	      4.96116330	     53.57331117	    -16.52145528	     -8.62285569	     99.30202784	     44.53938476	      0.00000000	      0.00000000	    -20.57759283	     -7.67683877	     12.62254011	     25.27761009	     43.83981621	      0.00000000	      0.00000000
     37.76228571	     -5.75557923	     -7.05279075	      5.49273319	      1.07821452	      0.91157180	      0.47974298	     -5.19863760	      6.41783493	    -19.15774026	      5.88776777	      5.88776777	     17.67141730	     10.90010274	     -2.24078312	     35.67506914	     -8.43659943	     -2.75318456	     20.23249953	     20.23249953	      2.54781148	    -13.15194176	     11.47276306	     -7.92459059	      8.42499789	      4.89090846	     54.49722499	    -15.91332689	     -8.11970481	    100.90184343	     44.49784135	      0.00000000	      0.00000000	    -21.89315192	     -7.59369109	     12.51752864	     26.03580451	     43.87360700	      0.00000000	      0.00000000
     37.77342857	     -5.79975415	     -6.94493556	      5.02231964	      1.07932882	      0.91022793	      0.47824774	     -5.68952976	      6.06650715	    -18.80757228	      6.30290743	      6.30290743	     18.19426353	     11.07764253	     -2.18213658	     35.47461226	     -8.38388148	     -2.63360568	     21.64415038	     21.64415038	      2.16494385	    -14.14595135	     11.39513458	     -7.74579738	      8.25351902	      5.17967707	     55.31453520	    -15.65621058	     -8.04388941	    101.55478744	     44.48342606	      0.00000000	      0.00000000	    -22.61374952	     -7.49478918	     12.52173983	     25.98593546	     43.87212521	      0.00000000	      0.00000000
     37.78457143	     -5.97893898	     -6.80672061	      4.54966550	      1.08035787	      0.90894454	      0.47667404	     -5.77605283	      5.56767656	    -18.51391161	      7.23685261	      7.23685261	     19.02352581	     11.17305768	     -1.51437593	     35.35766121	     -8.21070327	     -2.21384027	     22.82314848	     22.82314848	      1.74567264	    -15.47225784	     11.27770791	     -7.47473883	      8.04028267	      5.13251075	     55.75671892	    -15.11289959	     -7.76951460	    102.93755006	     44.45511155	      0.00000000	      0.00000000	    -23.50752554	     -7.42201265	     12.45927976	     26.34755441	     43.91285897	      0.00000000	      0.00000000
     37.79571429	     -6.01659794	     -6.68786479	      4.14412411	      1.08140363	      0.90799285	      0.47509512	     -6.06861022	      5.14742551	    -18.13593830	      8.00034799	      8.00034799	     19.49663321	     11.08502868	     -1.44585967	     35.23016090	     -8.14935831	     -2.01598983	     24.15483267	     24.15483267	      1.80934581	    -16.19271139	     11.00112116	     -7.34297719	      7.85238795	      5.19082288	     56.18599830	    -14.76714837	     -7.67797972	    103.68272327	     44.43800067	      0.00000000	      0.00000000	    -23.92030433	     -7.32199545	     12.47713229	     26.29307455	     43.91995613	      0.00000000	      0.00000000
     37.80685714	     -6.13446250	     -6.47123368	      3.72167989	      1.08232372	      0.90727353	      0.47344244	     -6.05903282	      4.54441260	    -17.63384996	      9.16519530	      9.16519530	     20.02143769	     10.69342397	     -1.37490024	     35.14796063	     -8.01237957	     -1.94642558	     25.35008316	     25.35008316	      2.06722793	    -16.77140705	     10.67607898	     -7.14660097	      7.54119489	      5.08936856	     56.25960810	    -14.30241349	     -7.53210417	    104.75992260	     44.41059805	      0.00000000	      0.00000000	    -24.23590511	     -7.22522066	     12.50611337	     26.22593035	     43.93400138	      0.00000000	      0.00000000
     37.81800000	     -6.07404032	     -6.23878189	      3.37975569	      1.08333410	      0.90717287	      0.47166246	     -6.31178992	      3.97553211	    -17.21373448	     10.14359292	     10.14359292	     20.24611019	     10.35728277	     -1.44450102	     34.84142159	     -7.86610231	     -1.93033452	     26.42355832	     26.42355832	      2.60836962	    -17.21430113	     10.30029382	     -7.12413892	      7.19358149	      4.96493168	     56.06681400	    -14.03935470	     -7.44542571	    105.33852081	     44.39387691	      0.00000000	      0.00000000	    -24.27363633	     -7.21003617	     12.53188669	     26.15074123	     43.94042473	      0.00000000	      0.00000000
     37.82914286	     -6.19375480	     -5.99814539	      3.05750168	      1.08398436	      0.90707438	      0.46979054	     -5.85642822	      3.29363392	    -16.35257421	     12.05796370	     12.05796370	     20.58712097	      8.95419384	     -1.60887695	     34.76019560	     -7.72236907	     -2.06248948	     27.46337483	     27.46337483	      3.40536222	    -17.39665622	     10.17470305	     -6.97565024	      6.89802708	      5.13758635	     55.40889768	    -14.06154725	     -7.59724878	    107.39635854	     44.37173488	      0.00000000	      0.00000000	    -23.84251041	     -7.22883128	     12.71939556	     25.74398687	     44.00159809	      0.00000000	      0.00000000
     37.84028571	     -6.14470100	     -5.74110894	      2.79033880	      1.08465596	      0.90754642	      0.46771270	     -5.57259866	      2.56043840	    -15.95022111	     13.95632139	     13.95632139	     20.64140330	      8.18181597	     -2.11536808	     34.38588941	     -7.56334773	     -2.26479126	     28.28256500	     28.28256500	      4.27432080	    -17.48713805	      9.72852216	     -6.98135997	      6.58199060	      4.81541049	     54.86021089	    -13.70468800	     -7.44046862	    108.05665696	     44.35264066	      0.00000000	      0.00000000	    -23.51683453	     -7.19103572	     12.82243387	     25.60810781	     44.00943711	      0.00000000	      0.00000000
     37.85142857	     -6.18414066	     -5.49921290	      2.55371824	      1.08512826	      0.90824458	      0.46553737	     -4.96329029	      1.87783456	    -15.13117158	     16.15127164	     16.15127164	     20.09397035	      6.46616768	     -3.67072791	     34.02549260	     -7.36899787	     -2.44759805	     28.91774421	     28.91774421	      5.22168608	    -17.56650903	      9.57281999	     -6.89549519	      6.30327818	      4.87499157	     53.75406275	    -13.90319650	     -7.51642452	    109.55361709	     44.33736592	      0.00000000	      0.00000000	    -22.60923916	     -7.23933267	     13.17323966	     25.02324812	     44.03404103	      0.00000000	      0.00000000
     37.86257143	     -6.12375248	     -5.22040811	      2.35442878	      1.08549853	      0.90934071	      0.46312642	     -4.20500582	      1.02427553	    -14.77697982	     18.84947977	     18.84947977	     19.63339388	      5.24550613	     -4.72270780	     33.41306257	     -7.14489382	     -2.82487942	     29.27825684	     29.27825684	      6.08388370	    -17.50444775	      9.17834009	     -6.89804816	      6.04834156	      4.51647834	     52.78813601	    -13.70062314	     -7.36595769	    110.15582241	     44.32064768	      0.00000000	      0.00000000	    -21.87739913	     -7.26371144	     13.32090421	     24.93515495	     44.04327806	      0.00000000	      0.00000000
     37.87371429	     -6.08748376	     -4.99388368	      2.16521159	      1.08568981	      0.91063996	      0.46072817	     -3.30786479	      0.35698868	    -13.91757659	     21.48787526	     21.48787526	     17.64165491	      2.57977080	     -8.87761210	     32.75790245	     -6.93005873	     -3.13995332	     29.49590884	     29.49590884	      6.93170924	    -17.48461116	      8.89148336	     -6.93426885	      5.84782706	      4.87030578	     51.10309891	    -14.39010254	     -7.62568374	    111.95952533	     44.31882740	      0.00000000	      0.00000000	    -20.36859512	     -7.39903736	     14.02858463	     24.11635460	     44.04513364	      0.00000000	      0.00000000
     37.88485714	     -6.04094495	     -4.70799904	      1.97130850	      1.08573209	      0.91206194	      0.45816135	     -1.98567473	     -0.61235711	    -13.64095348	     25.06626124	     25.06626124	     16.62455176	      1.06940310	     -9.98074620	     31.95384337	     -6.66094880	     -3.62229829	     29.47570560	     29.47570560	      7.67602450	    -17.29115844	      8.48311199	     -6.92694439	      5.60982400	      4.38080403	     49.81746916	    -14.16660887	     -7.40261385	    112.14997847	     44.30925663	      0.00000000	      0.00000000	    -19.49039312	     -7.48722738	     14.14526132	     24.25521657	     44.05578736	      0.00000000	      0.00000000
